REM DIRINDEX 1\2,1\3,1\4,1\5
REM DIRNAME cjc046,folder01,folder02,folder03,folder04
TITLE ""
FILE "130.mp3" MP3
  TRACK 01 AUDIO
    TITLE "0:"
    INDEX 01 00:00:00
  TRACK 02 AUDIO
    TITLE "2:cjc046_3312"
    INDEX 01 00:00:13
  TRACK 03 AUDIO
    TITLE "0:"
    INDEX 01 00:01:28
  TRACK 04 AUDIO
    TITLE "3:cjc046_3313"
    INDEX 01 00:01:52
  TRACK 05 AUDIO
    TITLE "0:"
    INDEX 01 00:02:69
  TRACK 06 AUDIO
    TITLE "4:cjc046_3314"
    INDEX 01 00:03:14
  TRACK 07 AUDIO
    TITLE "0:"
    INDEX 01 00:04:27
  TRACK 08 AUDIO
    TITLE "2:cjc046_3315"
    INDEX 01 00:05:40
  TRACK 09 AUDIO
    TITLE "0:"
    INDEX 01 00:06:39
  TRACK 10 AUDIO
    TITLE "3:cjc046_3316"
    INDEX 01 00:06:59
  TRACK 11 AUDIO
    TITLE "0:"
    INDEX 01 00:07:66
  TRACK 12 AUDIO
    TITLE "4:cjc046_3317"
    INDEX 01 00:08:07
  TRACK 13 AUDIO
    TITLE "0:"
    INDEX 01 00:09:08
  TRACK 14 AUDIO
    TITLE "2:cjc046_3318"
    INDEX 01 00:10:14
  TRACK 15 AUDIO
    TITLE "0:"
    INDEX 01 00:11:23
  TRACK 16 AUDIO
    TITLE "3:cjc046_3319"
    INDEX 01 00:11:42
  TRACK 17 AUDIO
    TITLE "0:"
    INDEX 01 00:13:08
  TRACK 18 AUDIO
    TITLE "4:cjc046_3320"
    INDEX 01 00:13:26
  TRACK 19 AUDIO
    TITLE "0:"
    INDEX 01 00:14:35
  TRACK 20 AUDIO
    TITLE "2:cjc046_3321"
    INDEX 01 00:15:38
  TRACK 21 AUDIO
    TITLE "0:"
    INDEX 01 00:16:44
  TRACK 22 AUDIO
    TITLE "3:cjc046_3322"
    INDEX 01 00:16:65
  TRACK 23 AUDIO
    TITLE "0:"
    INDEX 01 00:18:17
  TRACK 24 AUDIO
    TITLE "4:cjc046_3323"
    INDEX 01 00:18:31
  TRACK 25 AUDIO
    TITLE "0:"
    INDEX 01 00:19:38
  TRACK 26 AUDIO
    TITLE "2:cjc046_3324"
    INDEX 01 00:20:47
  TRACK 27 AUDIO
    TITLE "0:"
    INDEX 01 00:21:49
  TRACK 28 AUDIO
    TITLE "3:cjc046_3325"
    INDEX 01 00:21:72
  TRACK 29 AUDIO
    TITLE "0:"
    INDEX 01 00:23:12
  TRACK 30 AUDIO
    TITLE "4:cjc046_3326"
    INDEX 01 00:23:32
  TRACK 31 AUDIO
    TITLE "0:"
    INDEX 01 00:24:35
  TRACK 32 AUDIO
    TITLE "2:cjc046_3327"
    INDEX 01 00:25:45
  TRACK 33 AUDIO
    TITLE "0:"
    INDEX 01 00:26:40
  TRACK 34 AUDIO
    TITLE "3:cjc046_3328"
    INDEX 01 00:26:62
  TRACK 35 AUDIO
    TITLE "0:"
    INDEX 01 00:27:53
  TRACK 36 AUDIO
    TITLE "4:cjc046_3329"
    INDEX 01 00:27:73
  TRACK 37 AUDIO
    TITLE "0:"
    INDEX 01 00:28:68
  TRACK 38 AUDIO
    TITLE "2:cjc046_3330"
    INDEX 01 00:30:01
  TRACK 39 AUDIO
    TITLE "0:"
    INDEX 01 00:31:08
  TRACK 40 AUDIO
    TITLE "3:cjc046_3331"
    INDEX 01 00:31:26
  TRACK 41 AUDIO
    TITLE "0:"
    INDEX 01 00:32:68
  TRACK 42 AUDIO
    TITLE "4:cjc046_3332"
    INDEX 01 00:33:05
  TRACK 43 AUDIO
    TITLE "0:"
    INDEX 01 00:34:14
  TRACK 44 AUDIO
    TITLE "2:cjc046_3333"
    INDEX 01 00:35:23
  TRACK 45 AUDIO
    TITLE "0:"
    INDEX 01 00:36:31
  TRACK 46 AUDIO
    TITLE "3:cjc046_3334"
    INDEX 01 00:36:52
  TRACK 47 AUDIO
    TITLE "0:"
    INDEX 01 00:37:59
  TRACK 48 AUDIO
    TITLE "4:cjc046_3335"
    INDEX 01 00:38:02
  TRACK 49 AUDIO
    TITLE "0:"
    INDEX 01 00:39:09
  TRACK 50 AUDIO
    TITLE "2:cjc046_3336"
    INDEX 01 00:40:13
  TRACK 51 AUDIO
    TITLE "0:"
    INDEX 01 00:41:36
  TRACK 52 AUDIO
    TITLE "3:cjc046_3337"
    INDEX 01 00:41:57
  TRACK 53 AUDIO
    TITLE "0:"
    INDEX 01 00:43:60
  TRACK 54 AUDIO
    TITLE "4:cjc046_3338"
    INDEX 01 00:43:70
  TRACK 55 AUDIO
    TITLE "0:"
    INDEX 01 00:45:20
  TRACK 56 AUDIO
    TITLE "2:cjc046_3339"
    INDEX 01 00:46:29
  TRACK 57 AUDIO
    TITLE "0:"
    INDEX 01 00:47:32
  TRACK 58 AUDIO
    TITLE "3:cjc046_3340"
    INDEX 01 00:47:54
  TRACK 59 AUDIO
    TITLE "0:"
    INDEX 01 00:48:59
  TRACK 60 AUDIO
    TITLE "4:cjc046_3341"
    INDEX 01 00:48:67
  TRACK 61 AUDIO
    TITLE "0:"
    INDEX 01 00:49:70
  TRACK 62 AUDIO
    TITLE "2:cjc046_3342"
    INDEX 01 00:51:05
  TRACK 63 AUDIO
    TITLE "0:"
    INDEX 01 00:52:10
  TRACK 64 AUDIO
    TITLE "3:cjc046_3343"
    INDEX 01 00:52:28
  TRACK 65 AUDIO
    TITLE "0:"
    INDEX 01 00:53:29
  TRACK 66 AUDIO
    TITLE "4:cjc046_3344"
    INDEX 01 00:53:49
  TRACK 67 AUDIO
    TITLE "0:"
    INDEX 01 00:54:52
  TRACK 68 AUDIO
    TITLE "2:cjc046_3345"
    INDEX 01 00:55:59
  TRACK 69 AUDIO
    TITLE "0:"
    INDEX 01 00:57:03
  TRACK 70 AUDIO
    TITLE "3:cjc046_3346"
    INDEX 01 00:57:17
  TRACK 71 AUDIO
    TITLE "0:"
    INDEX 01 00:58:30
  TRACK 72 AUDIO
    TITLE "4:cjc046_3347"
    INDEX 01 00:58:38
  TRACK 73 AUDIO
    TITLE "0:"
    INDEX 01 00:59:57
